# xmcd
#
# Track frame offsets:
#	150
#	20551
#	43434
#	70461
#	95311
#	115853
#	140012
#	158432
#	188741
#	215429
#	234650
#
# Disc length: 3332 seconds
#
# Revision: 0
# Processed by: cddbd v1.5.2PL0 Copyright (c) Steve Scherf et al.
# Submitted via: EasyCDDAExtractor 8.2.3.1
#
DISCID=9b0d020b
DTITLE=TISHAMINGO - The Point
DYEAR=2007
DGENRE=Blues
TTITLE0=Get On Back
TTITLE1=Are We Rollin'
TTITLE2=Chest Fever
TTITLE3=Mitchell
TTITLE4=Travel On
TTITLE5=This Time
TTITLE6=Bad News
TTITLE7=Tennessee Mountain Angel
TTITLE8=Hard Fall
TTITLE9=Walkin' Shoes
TTITLE10=Devil's Love Song
EXTD=
EXTT0=
EXTT1=
EXTT2=
EXTT3=
EXTT4=
EXTT5=
EXTT6=
EXTT7=
EXTT8=
EXTT9=
EXTT10=
PLAYORDER=
